<svg xmlns="http://www.w3.org/2000/svg" viewBox="0 0 2048 2048">
    <defs>
        <linearGradient id="c" gradientUnits="userSpaceOnUse" x1="1030.56" y1="1861.7" x2="1030.41" y2="1603.02">
            <stop offset="0" stop-color="#5b28c0"/>
            <stop offset="1" stop-color="#7b53d4"/>
        </linearGradient>
        <linearGradient id="b" gradientUnits="userSpaceOnUse" x1="970.978" y1="1489.53" x2="1825.53" y2="1206.96">
            <stop offset="0" stop-color="#9066e0"/>
            <stop offset="1" stop-color="#b6acf8"/>
        </linearGradient>
        <linearGradient id="a" gradientUnits="userSpaceOnUse" x1="1375.36" y1="1839.01" x2="448.614" y2="163.346">
            <stop offset="0" stop-color="#0c2678"/>
            <stop offset="1" stop-color="#fcfcfc" stop-opacity="0"/>
        </linearGradient>
    </defs>
    <path fill="url(#a)" d="M144.35 760.88c-8.83-8.36-17.39-16.3-25.19-25.74-60.44-73.74-83.25-175.29-73.92-269.09 3.76-37.82 15.8-117.35 70.49-109.6 16.29 2.31 35.19 18.09 47.69 28.84 99.04 85.18 210.65 148.55 328.84 202.92 76.57 35.26 154.86 66.64 234.59 94.02 102.52 35.71 208.7 69.99 306.61 117.38 70.31 34.03 144.77 85.28 191.06 149.22 10.66-22.38 24.74-46.6 36.59-68.74 2.49-3.71 4.92-8.59 7.13-12.53 12.92-23.06 24.92-46.61 38.22-69.46 46.59-76.05 91.59-153.56 167.24-204.92 93.34-63.36 225.5-79.68 324.21-19.19 49.15 29.59 84.09 77.96 96.73 133.93 5.75 24.44 6.98 42.62 2.83 67.14 22.18 16.77 85.07 61.97 89.62 89.32.66 3.94-.07 7.68-2.62 10.81-15.88 19.45-137.2-8.63-198.34 84.69-24.02 36.67-29.9 79.77-27.31 122.85 2.51 41.61 10.17 82.68 15.96 123.9 3.18 22.59 5.27 45.78 6.91 68.54 9.81 136.96-34.57 286.2-126.18 389.78-16.38 18.52-33.58 38.37-53.21 53.57-18.88 19.81-49.21 38.91-72.25 53.51-89.7 56.84-194.05 82.55-299.69 85.4-79.05 2.13-159.37-12.32-236.36-30.21-81.62-21.41-161.66-43.96-246.91-41.89-49.29 1.2-93.34 11.18-138.55 30.98-42.28 18.52-80.75 42.87-126.04 53.55-7.94 1.87-18.3 5.38-26.28 5.75-106.27 24.32-225.41-39.9-281.32-130.96-22.58-36.77-51.44-113.4-40.3-156.06.34-1.29.72-2.56 1.15-3.82 4.7-13.79 15.47-25.08 28.22-31.84 7.05-3.76 14.87-5.83 22.86-6.05 14.47-.38 46.44 4.97 64.53 6.15 52.31 3.22 104.81.07 156.36-9.39 81.91-15.18 154.88-46.02 227.22-86.71 16.85-9.48 33.01-20.31 49.89-29.94-7.05-2.21-14.81-4.01-22.06-5.84-141.4-35.62-290.99-123.32-343.4-266.47-6.11-16.69-5.33-31 2.72-47.02-11.42-8.46-31.45-17.94-45.33-27.4-37.79-25.75-73.95-61.51-99.85-99.61-34.49-50.74-67.7-130.57-58.06-193.23 2.58-16.74 11.94-27.53 25.49-36.54z"/>
    <path fill="url(#b)" d="M1012.87 1605.65c22.09-2.72 46.6-3.56 69.2-6.1 64.54-7.25 134.11-22.58 193.77-48.34 112.28-49.14 198.59-141.49 249.14-251.48 40.44-86.29 55.35-181.45 96.46-266.68 19.54-40.52 70.83-112.08 112.16-129.99-74.62 109.45-50.01 205.85-35.58 327.38 9.59 80.76 3.5 172.54-28.28 247.76-11.84 28.01-29.97 64.23-49.33 87.72-13.07 22.48-33.01 45.96-50.05 65.73l-24.37 2.36-1.5-2.12c-2.23 1.47-1.78 2.03-.19 4.1 1.97 2.54 3.67 4.2 7.11 4.47 7.7.6 13.87 6.22 19.32 10.52 13.91 10.97 14.63 31.46 18.26 47.64.32 1.4.93 6.88 1.11 7.94.63 3.7-1.43-2.75-.66 3.68l-4.23-2.36.5 2.12c-18.88 19.81-49.21 38.91-72.25 53.51-89.7 56.84-194.05 82.55-299.69 85.4-79.05 2.13-159.37-12.32-236.36-30.21-81.62-21.41-161.66-43.96-246.91-41.89-49.29 1.2-93.34 11.18-138.55 30.98-42.28 18.52-80.75 42.87-126.04 53.55-7.94 1.87-18.3 5.38-26.28 5.75l.26-1.35c5.44-1.31 10.6-2.98 16.12-4.28 7.45-1.77 21.29-2.31 24.22-10.14-1.59-7.98-15.09-14.3-18.66-19.7-8.98-13.6-16.1-27.11-17.44-43.39-.21-2.56-5.36-3.37-7.44-5.11 10.31-3.63 21.98-6.3 31.91-10.59 48.89-21.15 93.93-51.14 140.98-76.9 129.52-70.93 242.81-88.66 386.71-98.5z"/>
    <path fill="url(#c)" d="M1012.87 1605.65c12.68 4.21 46.42-4.05 52.45-2.25-1.43 2.11-.58 1.13-2.57 2.9-.39-.83-.31-1.54-3.12-.17l-.72 1.37c-9.24 17.43-31.88 39.01-25.65 56.29 1.78 4.93 3.55 4.52 2.61 11.2 6.32 5.79 14.92 4.87 18.44 16.8 1.77 6 8.49 6.68 14.11 7.05 12 14.64 29.47 16.76 45.07 24.62.61.31 2.28 5.43 2.56 6.4.17.3 1.77.69 2.46 1.28-6.19 4.33-110.82-4.93-127.62-3.53-21.07.83-71.2-9.53-92.06-3.2l8.37 1.38c8.13 2.18 18.06 3.93 26.45 5.88l66.52 15.69c35.25 7.96 69 15.78 104.87 21.08 129.48 19.19 263.01 4.04 377.22-63.07 27.11-15.93 45.95-33.69 70.22-52.24l.85 1.86c2.23-1.47 2.68-2.03 4.27-4.1 1.97-2.54 3.67-4.2 7.11-4.47 7.7-.6 13.87 5.02 19.32 9.32 13.91 10.97 14.63 31.46 18.26 47.64.32 1.4.93 6.88 1.11 7.94.63 3.7-1.43-2.75-.66 3.68l-4.23-2.36.5 2.12c-18.88 19.81-49.21 38.91-72.25 53.51-89.7 56.84-194.05 82.55-299.69 85.4-79.05 2.13-159.37-12.32-236.36-30.21-81.62-21.41-161.66-43.96-246.91-41.89-49.29 1.2-93.34 11.18-138.55 30.98-42.28 18.52-80.75 42.87-126.04 53.55-7.94 1.87-18.3 5.38-26.28 5.75l.26-1.35c5.44-1.31 10.6-2.98 16.12-4.28 7.45-1.77 21.29-2.31 24.22-10.14-1.59-7.98-15.09-14.3-18.66-19.7-8.98-13.6-16.1-27.11-17.44-43.39-.21-2.56-5.36-3.37-7.44-5.11 10.31-3.63 21.98-6.3 31.91-10.59 48.89-21.15 93.93-51.14 140.98-76.9 129.52-70.93 242.81-88.66 386.71-98.5z"/>
    <path fill="#002252" d="M1696.1 713.35c8.76-.66 23.54 2.74 30.6 7.65 55.64 38.72-3.06 116.02-60.23 76.94-1.06-.93-2.1-1.89-3.12-2.87-9.24-8.82-14.05-17.14-14.38-30.22-6.79-1.07-14.22-2.36-20.68-4.77-6.18-2.32-25.21-14.5-21.51-21.79 7.34-3.56 36.56 6.09 42.5 2.35 20.56-12.96 17.05-23.72 47.82-27.28z"/>
    <path fill="#9aa7ee" d="M696.96 612.52c-29.68-8.19-55.72-20.34-83.94-32.78-13.27-6.18-28.88-12.95-41.12-20.73-11.49-7.3-17.83-36.76-20.51-49.19-12.66-58.21-10.99-118.62 4.87-176.03 7.16-25.06 23.42-71.98 47.84-84.76 39.59-20.71 65.86 28.77 88.64 53.32 87.54 94.35 192.98 168.42 302.61 234.7 113.63 69.26 251.08 126.95 311.1 253.06-13.3 22.85-25.3 46.4-38.22 69.46-2.21 3.94-4.64 8.82-7.13 12.53-4.25-6.82-9.65-22.65-13.64-31.01-12.59-26.84-28.8-51.82-48.18-74.26-56.96-65.02-149.93-116.02-223.72-159.29-40.25-23.69-80.98-48.24-120.17-73.64-38.95-25.53-79.34-57.24-115.64-86.71-38.75-31.45-74.03-68.21-108.69-104.08-7.72 29.92-15.45 54.55-14.71 86.09 1.71 71.77 29.42 126.13 79.6 175.32z"/>
</svg>